<?xml version="1.0" standalone="no"?>
<!DOCTYPE svg PUBLIC "-//W3C//DTD SVG 20010904//EN"
 "http://www.w3.org/TR/2001/REC-SVG-20010904/DTD/svg10.dtd">
<svg version="1.0" xmlns="http://www.w3.org/2000/svg"
 width="1042.000000pt" height="1042.000000pt" viewBox="0 0 1042.000000 1042.000000"
 preserveAspectRatio="xMidYMid meet">

<g transform="translate(0.000000,1042.000000) scale(0.100000,-0.100000)"
fill="#000000" stroke="none">
<path d="M1890 5480 l0 -4850 360 0 360 0 0 4660 0 4660 2360 0 2360 0 0 190
0 190 -2720 0 -2720 0 0 -4850z"/>
<path d="M2872 5168 l3 -4533 363 -3 362 -2 0 4275 0 4275 1870 0 1870 0 0
260 0 260 -2235 0 -2235 0 2 -4532z"/>
<path d="M3862 6908 l3 -1993 1025 0 1025 0 3 188 2 187 -680 0 -680 0 0 1605
0 1605 1393 2 1392 3 3 198 2 197 -1745 0 -1745 0 2 -1992z"/>
<path d="M4865 8188 c-3 -7 -4 -578 -3 -1268 l3 -1255 185 0 185 0 3 868 2
867 1645 0 1645 0 0 400 0 400 -1830 0 c-1455 0 -1832 -3 -1835 -12z"/>
<path d="M5507 7133 c-4 -3 -7 -336 -7 -740 l0 -733 190 0 190 0 0 340 0 340
1325 0 1325 0 -2 398 -3 397 -1506 3 c-828 1 -1509 -1 -1512 -5z"/>
<path d="M6490 4465 l0 -1275 1005 0 1005 0 0 1275 0 1275 -1005 0 -1005 0 0
-1275z"/>
<path d="M3890 2460 l0 -1830 350 0 350 0 0 1605 0 1605 660 0 660 0 0 225 0
225 -1010 0 -1010 0 0 -1830z"/>
<path d="M5520 2665 l0 -955 1505 0 1505 0 0 385 0 385 -1300 0 -1300 0 0 570
0 570 -205 0 -205 0 0 -955z"/>
<path d="M4852 2113 l3 -1478 1835 0 1835 0 0 370 0 370 -1627 3 -1628 2 0
1105 0 1105 -210 0 -210 0 2 -1477z"/>
</g>
</svg>
